{
  "accessors": [
    {
      "bufferView": 2,
      "componentType": 5126,
      "count": 3283,
      "max": [
        42.629791259765625,
        4.917612075805664,
        14.058633804321289
      ],
      "min": [
        5.39460563659668,
        -4.778073310852051,
        -7.1461381912231445
      ],
      "type": "VEC3"
    },
    {
      "bufferView": 2,
      "byteOffset": 39396,
      "componentType": 5126,
      "count": 3283,
      "max": [
        1.0,
        1.0,
        1.0
      ],
      "min": [
        -1.0,
        -1.0,
        -1.0
      ],
      "type": "VEC3"
    },
    {
      "bufferView": 3,
      "componentType": 5126,
      "count": 3283,
      "max": [
        1.0,
        1.0,
        1.0,
        1.0
      ],
      "min": [
        -1.0,
        -1.0,
        -1.0,
        -1.0
      ],
      "type": "VEC4"
    },
    {
      "bufferView": 1,
      "componentType": 5126,
      "count": 3283,
      "max": [
        0.9981334209442139,
        0.9987660646438599
      ],
      "min": [
        0.0014827749691903591,
        0.004321516025811434
      ],
      "type": "VEC2"
    },
    {
      "bufferView": 0,
      "componentType": 5125,
      "count": 12438,
      "type": "SCALAR"
    },
    {
      "bufferView": 2,
      "byteOffset": 78792,
      "componentType": 5126,
      "count": 3488,
      "max": [
        43.0777587890625,
        5.696345806121826,
        17.7725887298584
      ],
      "min": [
        6.522403717041016,
        -6.394015312194824,
        -7.152370929718018
      ],
      "type": "VEC3"
    },
    {
      "bufferView": 2,
      "byteOffset": 120648,
      "componentType": 5126,
      "count": 3488,
      "max": [
        1.0,
        1.0,
        1.0
      ],
      "min": [
        -1.0,
        -1.0,
        -1.0
      ],
      "type": "VEC3"
    },
    {
      "bufferView": 3,
      "byteOffset": 52528,
      "componentType": 5126,
      "count": 3488,
      "max": [
        1.0,
        1.0,
        1.0,
        1.0
      ],
      "min": [
        -1.0,
        -1.0,
        -1.0,
        -1.0
      ],
      "type": "VEC4"
    },
    {
      "bufferView": 1,
      "byteOffset": 26264,
      "componentType": 5126,
      "count": 3488,
      "max": [
        0.9967759847640991,
        0.996532142162323
      ],
      "min": [
        0.06611573696136475,
        0.016267649829387665
      ],
      "type": "VEC2"
    },
    {
      "bufferView": 0,
      "byteOffset": 49752,
      "componentType": 5125,
      "count": 10983,
      "type": "SCALAR"
    },
    {
      "bufferView": 2,
      "byteOffset": 162504,
      "componentType": 5126,
      "count": 448,
      "max": [
        43.81585693359375,
        8.819767951965332,
        -7.119575023651123
      ],
      "min": [
        1.8592910766601563,
        -8.680233001708984,
        -12.677630424499512
      ],
      "type": "VEC3"
    },
    {
      "bufferView": 2,
      "byteOffset": 167880,
      "componentType": 5126,
      "count": 448,
      "max": [
        0.9999999403953552,
        1.0,
        1.0
      ],
      "min": [
        -1.0,
        -1.0,
        -1.0
      ],
      "type": "VEC3"
    },
    {
      "bufferView": 3,
      "byteOffset": 108336,
      "componentType": 5126,
      "count": 448,
      "max": [
        1.0,
        1.0,
        1.0,
        1.0
      ],
      "min": [
        -1.0,
        -1.0,
        -1.0,
        1.0
      ],
      "type": "VEC4"
    },
    {
      "bufferView": 1,
      "byteOffset": 54168,
      "componentType": 5126,
      "count": 448,
      "max": [
        0.9975829124450684,
        0.9126620292663574
      ],
      "min": [
        0.006113581359386444,
        0.003968086093664169
      ],
      "type": "VEC2"
    },
    {
      "bufferView": 0,
      "byteOffset": 93684,
      "componentType": 5125,
      "count": 1317,
      "type": "SCALAR"
    },
    {
      "bufferView": 2,
      "byteOffset": 173256,
      "componentType": 5126,
      "count": 75,
      "max": [
        40.15956497192383,
        8.549924850463867,
        11.111655235290527
      ],
      "min": [
        39.90956115722656,
        -9.11043643951416,
        -16.80986213684082
      ],
      "type": "VEC3"
    },
    {
      "bufferView": 2,
      "byteOffset": 174156,
      "componentType": 5126,
      "count": 75,
      "max": [
        0.7495874762535095,
        0.719570517539978,
        0.745166003704071
      ],
      "min": [
        -0.7495874166488647,
        -0.7195543646812439,
        -0.6619073152542114
      ],
      "type": "VEC3"
    },
    {
      "bufferView": 3,
      "byteOffset": 115504,
      "componentType": 5126,
      "count": 75,
      "max": [
        0.7189553380012512,
        0.736426055431366,
        0.749586820602417,
        1.0
      ],
      "min": [
        -0.745166003704071,
        -0.744928240776062,
        -0.7573415040969849,
        1.0
      ],
      "type": "VEC4"
    },
    {
      "bufferView": 1,
      "byteOffset": 57752,
      "componentType": 5126,
      "count": 75,
      "max": [
        0.06321410089731216,
        1.7602566480636597
      ],
      "min": [
        0.0033000241965055466,
        -1.8187012672424316
      ],
      "type": "VEC2"
    },
    {
      "bufferView": 0,
      "byteOffset": 98952,
      "componentType": 5125,
      "count": 336,
      "type": "SCALAR"
    },
    {
      "bufferView": 2,
      "byteOffset": 175056,
      "componentType": 5126,
      "count": 403,
      "max": [
        37.51759719848633,
        -3.668184280395508,
        0.7591609954833984
      ],
      "min": [
        33.629947662353516,
        -6.434318542480469,
        -6.548072814941406
      ],
      "type": "VEC3"
    },
    {
      "bufferView": 2,
      "byteOffset": 179892,
      "componentType": 5126,
      "count": 403,
      "max": [
        1.0,
        1.0,
        1.0
      ],
      "min": [
        -1.0,
        -0.9999679923057556,
        -1.0
      ],
      "type": "VEC3"
    },
    {
      "bufferView": 3,
      "byteOffset": 116704,
      "componentType": 5126,
      "count": 403,
      "max": [
        1.0,
        1.0,
        0.9999278783798218,
        1.0
      ],
      "min": [
        -1.0,
        -1.0,
        -0.9785751700401306,
        -1.0
      ],
      "type": "VEC4"
    },
    {
      "bufferView": 1,
      "byteOffset": 58352,
      "componentType": 5126,
      "count": 403,
      "max": [
        0.9551260471343994,
        0.9961221814155579
      ],
      "min": [
        0.07020999491214752,
        0.06077330932021141
      ],
      "type": "VEC2"
    },
    {
      "bufferView": 0,
      "byteOffset": 100296,
      "componentType": 5125,
      "count": 1536,
      "type": "SCALAR"
    },
    {
      "bufferView": 2,
      "byteOffset": 184728,
      "componentType": 5126,
      "count": 1190,
      "max": [
        30.0,
        24.72116470336914,
        2.045921802520752
      ],
      "min": [
        -30.0,
        -22.27883529663086,
        0.049036502838134766
      ],
      "type": "VEC3"
    },
    {
      "bufferView": 2,
      "byteOffset": 199008,
      "componentType": 5126,
      "count": 1190,
      "max": [
        1.0,
        1.0,
        1.0
      ],
      "min": [
        -1.0,
        -0.9999982714653015,
        -1.0
      ],
      "type": "VEC3"
    },
    {
      "bufferView": 3,
      "byteOffset": 123152,
      "componentType": 5126,
      "count": 1190,
      "max": [
        1.0,
        0.9999998807907104,
        1.0,
        1.0
      ],
      "min": [
        -1.0,
        -0.9999967813491821,
        -1.0,
        1.0
      ],
      "type": "VEC4"
    },
    {
      "bufferView": 1,
      "byteOffset": 61576,
      "componentType": 5126,
      "count": 1190,
      "max": [
        0.9930496215820313,
        0.9895300269126892
      ],
      "min": [
        0.004523989744484425,
        0.022267423570156097
      ],
      "type": "VEC2"
    },
    {
      "bufferView": 0,
      "byteOffset": 106440,
      "componentType": 5125,
      "count": 3717,
      "type": "SCALAR"
    },
    {
      "bufferView": 2,
      "byteOffset": 213288,
      "componentType": 5126,
      "count": 411,
      "max": [
        0.4635314345359802,
        0.6044386029243469,
        3.9777348041534424
      ],
      "min": [
        -14.261093139648438,
        -8.68556022644043,
        -20.129352569580078
      ],
      "type": "VEC3"
    },
    {
      "bufferView": 2,
      "byteOffset": 218220,
      "componentType": 5126,
      "count": 411,
      "max": [
        1.0,
        1.0,
        1.0
      ],
      "min": [
        -1.0,
        -1.0,
        -1.0
      ],
      "type": "VEC3"
    },
    {
      "bufferView": 3,
      "byteOffset": 142192,
      "componentType": 5126,
      "count": 411,
      "max": [
        1.0,
        1.0,
        1.0,
        1.0
      ],
      "min": [
        -1.0,
        -1.0,
        -0.9731845855712891,
        1.0
      ],
      "type": "VEC4"
    },
    {
      "bufferView": 1,
      "byteOffset": 71096,
      "componentType": 5126,
      "count": 411,
      "max": [
        0.9890899658203125,
        65.55268859863281
      ],
      "min": [
        0.013586576096713543,
        -0.36496639251708984
      ],
      "type": "VEC2"
    },
    {
      "bufferView": 0,
      "byteOffset": 121308,
      "componentType": 5125,
      "count": 1215,
      "type": "SCALAR"
    }
  ],
  "asset": {
    "extras": {
      "author": "Igor Kulikov (https://sketchfab.com/shuntup)",
      "license": "SKETCHFAB Editorial (https://sketchfab.com/licenses)",
      "source": "https://sketchfab.com/3d-models/khler-zick-zack-automatic-sewing-machine-d3e77c9c1df14abc93bd3d4bc82749e8",
      "title": "Kӧhler Zick- Zack Automatic Sewing Machine"
    },
    "generator": "Sketchfab-12.68.0",
    "version": "2.0"
  },
  "bufferViews": [
    {
      "buffer": 0,
      "byteLength": 126168,
      "name": "floatBufferViews",
      "target": 34963
    },
    {
      "buffer": 0,
      "byteLength": 74384,
      "byteOffset": 126168,
      "byteStride": 8,
      "name": "floatBufferViews",
      "target": 34962
    },
    {
      "buffer": 0,
      "byteLength": 223152,
      "byteOffset": 200552,
      "byteStride": 12,
      "name": "floatBufferViews",
      "target": 34962
    },
    {
      "buffer": 0,
      "byteLength": 148768,
      "byteOffset": 423704,
      "byteStride": 16,
      "name": "floatBufferViews",
      "target": 34962
    }
  ],
  "buffers": [
    {
      "byteLength": 572472,
      "uri": "scene.bin"
    }
  ],
  "images": [
    {
      "uri": "textures/machine_body_baseColor.jpeg"
    },
    {
      "uri": "textures/machine_body_metallicRoughness.png"
    },
    {
      "uri": "textures/machine_body_emissive.jpeg"
    },
    {
      "uri": "textures/machine_body_normal.png"
    },
    {
      "uri": "textures/machine_details_baseColor.jpeg"
    },
    {
      "uri": "textures/machine_details_metallicRoughness.png"
    },
    {
      "uri": "textures/machine_details_normal.png"
    },
    {
      "uri": "textures/table_baseColor.jpeg"
    },
    {
      "uri": "textures/table_metallicRoughness.png"
    },
    {
      "uri": "textures/table_normal.png"
    },
    {
      "uri": "textures/thread_baseColor.jpeg"
    },
    {
      "uri": "textures/thread_metallicRoughness.png"
    },
    {
      "uri": "textures/thread_normal.png"
    }
  ],
  "materials": [
    {
      "doubleSided": true,
      "emissiveFactor": [
        1.0,
        1.0,
        1.0
      ],
      "emissiveTexture": {
        "index": 2
      },
      "name": "machine_body",
      "normalTexture": {
        "index": 3
      },
      "occlusionTexture": {
        "index": 1
      },
      "pbrMetallicRoughness": {
        "baseColorTexture": {
          "index": 0
        },
        "metallicRoughnessTexture": {
          "index": 1
        }
      }
    },
    {
      "doubleSided": true,
      "name": "machine_details",
      "normalTexture": {
        "index": 6
      },
      "occlusionTexture": {
        "index": 5
      },
      "pbrMetallicRoughness": {
        "baseColorTexture": {
          "index": 4
        },
        "metallicRoughnessTexture": {
          "index": 5
        }
      }
    },
    {
      "doubleSided": true,
      "name": "table",
      "normalTexture": {
        "index": 9
      },
      "occlusionTexture": {
        "index": 8
      },
      "pbrMetallicRoughness": {
        "baseColorTexture": {
          "index": 7
        },
        "metallicRoughnessTexture": {
          "index": 8
        }
      }
    },
    {
      "doubleSided": true,
      "name": "thread",
      "normalTexture": {
        "index": 12
      },
      "occlusionTexture": {
        "index": 11
      },
      "pbrMetallicRoughness": {
        "baseColorTexture": {
          "index": 10
        },
        "metallicFactor": 0.0,
        "metallicRoughnessTexture": {
          "index": 11
        }
      }
    }
  ],
  "meshes": [
    {
      "name": "Object047_machine_body_0",
      "primitives": [
        {
          "attributes": {
            "NORMAL": 1,
            "POSITION": 0,
            "TANGENT": 2,
            "TEXCOORD_0": 3
          },
          "indices": 4,
          "material": 0,
          "mode": 4
        }
      ]
    },
    {
      "name": "Object048_machine_details_0",
      "primitives": [
        {
          "attributes": {
            "NORMAL": 6,
            "POSITION": 5,
            "TANGENT": 7,
            "TEXCOORD_0": 8
          },
          "indices": 9,
          "material": 1,
          "mode": 4
        }
      ]
    },
    {
      "name": "Object074_machine_body_0",
      "primitives": [
        {
          "attributes": {
            "NORMAL": 11,
            "POSITION": 10,
            "TANGENT": 12,
            "TEXCOORD_0": 13
          },
          "indices": 14,
          "material": 0,
          "mode": 4
        }
      ]
    },
    {
      "name": "Shape004_machine_details_0",
      "primitives": [
        {
          "attributes": {
            "NORMAL": 16,
            "POSITION": 15,
            "TANGENT": 17,
            "TEXCOORD_0": 18
          },
          "indices": 19,
          "material": 1,
          "mode": 4
        }
      ]
    },
    {
      "name": "Object077_machine_details_0",
      "primitives": [
        {
          "attributes": {
            "NORMAL": 21,
            "POSITION": 20,
            "TANGENT": 22,
            "TEXCOORD_0": 23
          },
          "indices": 24,
          "material": 1,
          "mode": 4
        }
      ]
    },
    {
      "name": "table_no_bake_table_0",
      "primitives": [
        {
          "attributes": {
            "NORMAL": 26,
            "POSITION": 25,
            "TANGENT": 27,
            "TEXCOORD_0": 28
          },
          "indices": 29,
          "material": 2,
          "mode": 4
        }
      ]
    },
    {
      "name": "Cylinder062_thread_0",
      "primitives": [
        {
          "attributes": {
            "NORMAL": 31,
            "POSITION": 30,
            "TANGENT": 32,
            "TEXCOORD_0": 33
          },
          "indices": 34,
          "material": 3,
          "mode": 4
        }
      ]
    }
  ],
  "nodes": [
    {
      "children": [
        1
      ],
      "matrix": [
        1.0,
        0.0,
        0.0,
        0.0,
        0.0,
        2.220446049250313e-16,
        -1.0,
        0.0,
        0.0,
        1.0,
        2.220446049250313e-16,
        0.0,
        0.0,
        0.0,
        0.0,
        1.0
      ],
      "name": "Sketchfab_model"
    },
    {
      "children": [
        2
      ],
      "matrix": [
        1.0,
        0.0,
        0.0,
        0.0,
        0.0,
        0.0,
        1.0,
        0.0,
        0.0,
        -1.0,
        0.0,
        0.0,
        0.0,
        0.0,
        0.0,
        1.0
      ],
      "name": "for_sketchfab.FBX"
    },
    {
      "children": [
        3,
        6,
        9,
        12,
        15,
        18,
        21
      ],
      "name": "RootNode"
    },
    {
      "children": [
        4
      ],
      "matrix": [
        1.0,
        0.0,
        0.0,
        0.0,
        0.0,
        2.220446049250313e-16,
        -1.0,
        0.0,
        0.0,
        1.0,
        2.220446049250313e-16,
        0.0,
        0.9226226806640625,
        2.7395248413085938,
        0.06976032257080078,
        1.0
      ],
      "name": "Object047"
    },
    {
      "children": [
        5
      ],
      "matrix": [
        1.0,
        0.0,
        -0.0,
        0.0,
        0.0,
        1.0,
        0.0,
        0.0,
        0.0,
        0.0,
        1.0,
        0.0,
        -24.144405364990234,
        1.0720397958024694e-14,
        7.843780517578125,
        1.0
      ],
      "name": "Object_4"
    },
    {
      "mesh": 0,
      "name": "Object047_machine_body_0"
    },
    {
      "children": [
        7
      ],
      "matrix": [
        1.0,
        0.0,
        0.0,
        0.0,
        0.0,
        2.220446049250313e-16,
        -1.0,
        0.0,
        0.0,
        1.0,
        2.220446049250313e-16,
        0.0,
        0.9226226806640625,
        2.7395248413085938,
        0.06976032257080078,
        1.0
      ],
      "name": "Object048"
    },
    {
      "children": [
        8
      ],
      "matrix": [
        1.0,
        0.0,
        -0.0,
        0.0,
        0.0,
        1.0,
        0.0,
        0.0,
        0.0,
        0.0,
        1.0,
        0.0,
        -24.144405364990234,
        1.0720397958024694e-14,
        7.843780517578125,
        1.0
      ],
      "name": "Object_7"
    },
    {
      "mesh": 1,
      "name": "Object048_machine_details_0"
    },
    {
      "children": [
        10
      ],
      "matrix": [
        1.0,
        0.0,
        0.0,
        0.0,
        0.0,
        2.220446049250313e-16,
        -1.0,
        0.0,
        0.0,
        1.0,
        2.220446049250313e-16,
        0.0,
        0.9226226806640625,
        2.8152084350585938,
        0.06976032257080078,
        1.0
      ],
      "name": "Object074"
    },
    {
      "children": [
        11
      ],
      "matrix": [
        1.0,
        0.0,
        -0.0,
        0.0,
        0.0,
        1.0,
        0.0,
        0.0,
        0.0,
        0.0,
        1.0,
        0.0,
        -24.144405364990234,
        1.0720397958024694e-14,
        7.843780517578125,
        1.0
      ],
      "name": "Object_10"
    },
    {
      "mesh": 2,
      "name": "Object074_machine_body_0"
    },
    {
      "children": [
        13
      ],
      "matrix": [
        1.0,
        0.0,
        0.0,
        0.0,
        0.0,
        2.220446049250313e-16,
        -1.0,
        0.0,
        0.0,
        1.0,
        2.220446049250313e-16,
        0.0,
        0.9226226806640625,
        2.7395248413085938,
        0.06976032257080078,
        1.0
      ],
      "name": "Shape004"
    },
    {
      "children": [
        14
      ],
      "matrix": [
        1.0,
        0.0,
        -0.0,
        0.0,
        0.0,
        1.0,
        0.0,
        0.0,
        0.0,
        0.0,
        1.0,
        0.0,
        -24.144405364990234,
        1.0720397958024694e-14,
        7.843780517578125,
        1.0
      ],
      "name": "Object_13"
    },
    {
      "mesh": 3,
      "name": "Shape004_machine_details_0"
    },
    {
      "children": [
        16
      ],
      "matrix": [
        0.9744078049005701,
        -0.2247875213370451,
        0.0,
        0.0,
        0.0,
        0.0,
        -1.0,
        0.0,
        0.2247875213370451,
        0.9744078049005701,
        0.0,
        0.0,
        12.35198974609375,
        9.323486328125,
        5.121011734008789,
        1.0
      ],
      "name": "Object077"
    },
    {
      "children": [
        17
      ],
      "matrix": [
        1.0,
        0.0,
        -0.0,
        0.0,
        0.0,
        1.0,
        0.0,
        0.0,
        0.0,
        0.0,
        1.0,
        0.0,
        -35.57377243041992,
        5.051251411437988,
        1.2598190307617188,
        1.0
      ],
      "name": "Object_16"
    },
    {
      "mesh": 4,
      "name": "Object077_machine_details_0"
    },
    {
      "children": [
        19
      ],
      "matrix": [
        1.0,
        0.0,
        0.0,
        0.0,
        0.0,
        2.220446049250313e-16,
        -1.0,
        0.0,
        0.0,
        1.0,
        2.220446049250313e-16,
        0.0,
        -3.124603271484375,
        0.0,
        4.971160888671875,
        1.0
      ],
      "name": "table_no_bake"
    },
    {
      "children": [
        20
      ],
      "matrix": [
        1.0,
        0.0,
        -0.0,
        0.0,
        0.0,
        1.0,
        0.0,
        0.0,
        0.0,
        0.0,
        1.0,
        0.0,
        0.0,
        0.0,
        1.4354877471923828,
        1.0
      ],
      "name": "Object_19"
    },
    {
      "mesh": 5,
      "name": "table_no_bake_table_0"
    },
    {
      "children": [
        22
      ],
      "matrix": [
        1.0,
        0.0,
        0.0,
        0.0,
        0.0,
        2.220446049250313e-16,
        -1.0,
        0.0,
        0.0,
        1.0,
        2.220446049250313e-16,
        0.0,
        -1.9888732433319092,
        24.28143310546875,
        -4.4889678955078125,
        1.0
      ],
      "name": "Cylinder062"
    },
    {
      "mesh": 6,
      "name": "Cylinder062_thread_0"
    }
  ],
  "samplers": [
    {
      "magFilter": 9729,
      "minFilter": 9987,
      "wrapS": 10497,
      "wrapT": 10497
    }
  ],
  "scene": 0,
  "scenes": [
    {
      "name": "Sketchfab_Scene",
      "nodes": [
        0
      ]
    }
  ],
  "textures": [
    {
      "sampler": 0,
      "source": 0
    },
    {
      "sampler": 0,
      "source": 1
    },
    {
      "sampler": 0,
      "source": 2
    },
    {
      "sampler": 0,
      "source": 3
    },
    {
      "sampler": 0,
      "source": 4
    },
    {
      "sampler": 0,
      "source": 5
    },
    {
      "sampler": 0,
      "source": 6
    },
    {
      "sampler": 0,
      "source": 7
    },
    {
      "sampler": 0,
      "source": 8
    },
    {
      "sampler": 0,
      "source": 9
    },
    {
      "sampler": 0,
      "source": 10
    },
    {
      "sampler": 0,
      "source": 11
    },
    {
      "sampler": 0,
      "source": 12
    }
  ]
}
