{
  "accessors": [
    {
      "bufferView": 2,
      "componentType": 5126,
      "count": 1312,
      "max": [
        0.053579315543174744,
        0.08816315233707428,
        0.006391981150954962
      ],
      "min": [
        -0.05426806956529617,
        -0.09309835731983185,
        0.0003765614237636328
      ],
      "type": "VEC3"
    },
    {
      "bufferView": 2,
      "byteOffset": 15744,
      "componentType": 5126,
      "count": 1312,
      "max": [
        0.9998013973236084,
        1.0,
        0.9998427629470825
      ],
      "min": [
        -0.9998013973236084,
        -1.0,
        -0.9998013973236084
      ],
      "type": "VEC3"
    },
    {
      "bufferView": 3,
      "componentType": 5126,
      "count": 1312,
      "max": [
        0.9995498657226563,
        0.9857808947563171,
        0.9927264451980591,
        1.0
      ],
      "min": [
        -0.9990943670272827,
        -0.9226949214935303,
        -0.9926096200942993,
        -1.0
      ],
      "type": "VEC4"
    },
    {
      "bufferView": 1,
      "componentType": 5126,
      "count": 1312,
      "max": [
        0.9562549591064453,
        0.4546649754047394
      ],
      "min": [
        0.020924244076013565,
        0.01102980226278305
      ],
      "type": "VEC2"
    },
    {
      "bufferView": 1,
      "byteOffset": 10496,
      "componentType": 5126,
      "count": 1312,
      "max": [
        0.9562549591064453,
        0.4546649754047394
      ],
      "min": [
        0.020924244076013565,
        0.01102980226278305
      ],
      "type": "VEC2"
    },
    {
      "bufferView": 1,
      "byteOffset": 20992,
      "componentType": 5126,
      "count": 1312,
      "max": [
        0.9562549591064453,
        0.4546649754047394
      ],
      "min": [
        0.020924244076013565,
        0.01102980226278305
      ],
      "type": "VEC2"
    },
    {
      "bufferView": 0,
      "componentType": 5125,
      "count": 5022,
      "type": "SCALAR"
    },
    {
      "bufferView": 2,
      "byteOffset": 31488,
      "componentType": 5126,
      "count": 3182,
      "max": [
        0.02792324870824814,
        0.04689139872789383,
        0.013735748827457428
      ],
      "min": [
        -0.030448496341705322,
        -0.07505083829164505,
        0.0002341759391129017
      ],
      "type": "VEC3"
    },
    {
      "bufferView": 2,
      "byteOffset": 69672,
      "componentType": 5126,
      "count": 3182,
      "max": [
        1.0,
        1.0,
        1.0
      ],
      "min": [
        -1.0,
        -1.0,
        -1.0
      ],
      "type": "VEC3"
    },
    {
      "bufferView": 3,
      "byteOffset": 20992,
      "componentType": 5126,
      "count": 3182,
      "max": [
        1.0,
        0.9999998211860657,
        1.0,
        1.0
      ],
      "min": [
        -1.0,
        -1.0,
        -0.999998152256012,
        -1.0
      ],
      "type": "VEC4"
    },
    {
      "bufferView": 1,
      "byteOffset": 31488,
      "componentType": 5126,
      "count": 3182,
      "max": [
        0.9916435480117798,
        0.9957807660102844
      ],
      "min": [
        0.5309937000274658,
        0.4036649465560913
      ],
      "type": "VEC2"
    },
    {
      "bufferView": 1,
      "byteOffset": 56944,
      "componentType": 5126,
      "count": 3182,
      "max": [
        0.9916435480117798,
        0.9957807660102844
      ],
      "min": [
        0.5309937000274658,
        0.4036649465560913
      ],
      "type": "VEC2"
    },
    {
      "bufferView": 1,
      "byteOffset": 82400,
      "componentType": 5126,
      "count": 3182,
      "max": [
        0.9916435480117798,
        0.9957807660102844
      ],
      "min": [
        0.5309937000274658,
        0.4036649465560913
      ],
      "type": "VEC2"
    },
    {
      "bufferView": 0,
      "byteOffset": 20088,
      "componentType": 5125,
      "count": 9864,
      "type": "SCALAR"
    },
    {
      "bufferView": 2,
      "byteOffset": 107856,
      "componentType": 5126,
      "count": 3314,
      "max": [
        0.04486968740820885,
        0.13654132187366486,
        0.03345026075839996
      ],
      "min": [
        -0.04888693243265152,
        -0.1385403722524643,
        -0.0006547421216964722
      ],
      "type": "VEC3"
    },
    {
      "bufferView": 2,
      "byteOffset": 147624,
      "componentType": 5126,
      "count": 3314,
      "max": [
        1.0,
        0.9996049404144287,
        0.9996049404144287
      ],
      "min": [
        -1.0,
        -0.9996049404144287,
        -0.9996049404144287
      ],
      "type": "VEC3"
    },
    {
      "bufferView": 3,
      "byteOffset": 71904,
      "componentType": 5126,
      "count": 3314,
      "max": [
        1.0,
        0.9996049404144287,
        0.9999443292617798,
        1.0
      ],
      "min": [
        -1.0,
        -0.9996047019958496,
        -0.9999310374259949,
        -1.0
      ],
      "type": "VEC4"
    },
    {
      "bufferView": 1,
      "byteOffset": 107856,
      "componentType": 5126,
      "count": 3314,
      "max": [
        0.5208562016487122,
        0.9947006702423096
      ],
      "min": [
        0.0008667325600981712,
        0.31514763832092285
      ],
      "type": "VEC2"
    },
    {
      "bufferView": 1,
      "byteOffset": 134368,
      "componentType": 5126,
      "count": 3314,
      "max": [
        0.5208562016487122,
        0.9947006702423096
      ],
      "min": [
        0.0008667325600981712,
        0.31514763832092285
      ],
      "type": "VEC2"
    },
    {
      "bufferView": 1,
      "byteOffset": 160880,
      "componentType": 5126,
      "count": 3314,
      "max": [
        0.5208562016487122,
        0.9947006702423096
      ],
      "min": [
        0.0008667325600981712,
        0.31514763832092285
      ],
      "type": "VEC2"
    },
    {
      "bufferView": 0,
      "byteOffset": 59544,
      "componentType": 5125,
      "count": 8748,
      "type": "SCALAR"
    },
    {
      "bufferView": 2,
      "byteOffset": 187392,
      "componentType": 5126,
      "count": 1312,
      "max": [
        0.034689757972955704,
        0.09842976182699203,
        0.007658987306058407
      ],
      "min": [
        -0.037050068378448486,
        -0.09912093728780746,
        0.0012621115893125534
      ],
      "type": "VEC3"
    },
    {
      "bufferView": 2,
      "byteOffset": 203136,
      "componentType": 5126,
      "count": 1312,
      "max": [
        0.9813074469566345,
        0.9815590381622314,
        0.9997601509094238
      ],
      "min": [
        -0.9813074469566345,
        -0.9815590381622314,
        -0.9997459053993225
      ],
      "type": "VEC3"
    },
    {
      "bufferView": 3,
      "byteOffset": 124928,
      "componentType": 5126,
      "count": 1312,
      "max": [
        0.9999997019767761,
        0.9960942268371582,
        0.9928650259971619,
        1.0
      ],
      "min": [
        -0.9992660880088806,
        -0.8730130195617676,
        -0.9927510619163513,
        -1.0
      ],
      "type": "VEC4"
    },
    {
      "bufferView": 1,
      "byteOffset": 187392,
      "componentType": 5126,
      "count": 1312,
      "max": [
        0.994734525680542,
        0.42502158880233765
      ],
      "min": [
        0.020924244076013565,
        0.008769096806645393
      ],
      "type": "VEC2"
    },
    {
      "bufferView": 1,
      "byteOffset": 197888,
      "componentType": 5126,
      "count": 1312,
      "max": [
        0.994734525680542,
        0.42502158880233765
      ],
      "min": [
        0.020924244076013565,
        0.008769096806645393
      ],
      "type": "VEC2"
    },
    {
      "bufferView": 1,
      "byteOffset": 208384,
      "componentType": 5126,
      "count": 1312,
      "max": [
        0.994734525680542,
        0.42502158880233765
      ],
      "min": [
        0.020924244076013565,
        0.008769096806645393
      ],
      "type": "VEC2"
    },
    {
      "bufferView": 0,
      "byteOffset": 94536,
      "componentType": 5125,
      "count": 5022,
      "type": "SCALAR"
    }
  ],
  "asset": {
    "extras": {
      "author": "3DDisco (https://sketchfab.com/3DDisco)",
      "license": "SKETCHFAB Standard (https://sketchfab.com/licenses)",
      "source": "https://sketchfab.com/3d-models/scissors-divider-pen-corrector-3d-model-3cddd4e91de64cbe8359ac2bacb299c9",
      "title": "Scissors divider pen corrector 3D Model"
    },
    "generator": "Sketchfab-12.67.0",
    "version": "2.0"
  },
  "bufferViews": [
    {
      "buffer": 0,
      "byteLength": 114624,
      "name": "floatBufferViews",
      "target": 34963
    },
    {
      "buffer": 0,
      "byteLength": 218880,
      "byteOffset": 114624,
      "byteStride": 8,
      "name": "floatBufferViews",
      "target": 34962
    },
    {
      "buffer": 0,
      "byteLength": 218880,
      "byteOffset": 333504,
      "byteStride": 12,
      "name": "floatBufferViews",
      "target": 34962
    },
    {
      "buffer": 0,
      "byteLength": 145920,
      "byteOffset": 552384,
      "byteStride": 16,
      "name": "floatBufferViews",
      "target": 34962
    }
  ],
  "buffers": [
    {
      "byteLength": 698304,
      "uri": "scene.bin"
    }
  ],
  "images": [
    {
      "uri": "textures/Tools_baseColor.png"
    },
    {
      "uri": "textures/Tools_metallicRoughness.png"
    },
    {
      "uri": "textures/Tools_normal.png"
    }
  ],
  "materials": [
    {
      "doubleSided": true,
      "name": "Tools",
      "normalTexture": {
        "index": 2
      },
      "occlusionTexture": {
        "index": 1
      },
      "pbrMetallicRoughness": {
        "baseColorTexture": {
          "index": 0
        },
        "metallicRoughnessTexture": {
          "index": 1
        }
      }
    }
  ],
  "meshes": [
    {
      "name": "Scissors2_Tools_0",
      "primitives": [
        {
          "attributes": {
            "NORMAL": 1,
            "POSITION": 0,
            "TANGENT": 2,
            "TEXCOORD_0": 3,
            "TEXCOORD_1": 4,
            "TEXCOORD_2": 5
          },
          "indices": 6,
          "material": 0,
          "mode": 4
        }
      ]
    },
    {
      "name": "Corrector_Tools_0",
      "primitives": [
        {
          "attributes": {
            "NORMAL": 8,
            "POSITION": 7,
            "TANGENT": 9,
            "TEXCOORD_0": 10,
            "TEXCOORD_1": 11,
            "TEXCOORD_2": 12
          },
          "indices": 13,
          "material": 0,
          "mode": 4
        }
      ]
    },
    {
      "name": "Divider_Tools_0",
      "primitives": [
        {
          "attributes": {
            "NORMAL": 15,
            "POSITION": 14,
            "TANGENT": 16,
            "TEXCOORD_0": 17,
            "TEXCOORD_1": 18,
            "TEXCOORD_2": 19
          },
          "indices": 20,
          "material": 0,
          "mode": 4
        }
      ]
    },
    {
      "name": "Scissors1_Tools_0",
      "primitives": [
        {
          "attributes": {
            "NORMAL": 22,
            "POSITION": 21,
            "TANGENT": 23,
            "TEXCOORD_0": 24,
            "TEXCOORD_1": 25,
            "TEXCOORD_2": 26
          },
          "indices": 27,
          "material": 0,
          "mode": 4
        }
      ]
    }
  ],
  "nodes": [
    {
      "children": [
        1
      ],
      "matrix": [
        1.0,
        0.0,
        0.0,
        0.0,
        0.0,
        2.220446049250313e-16,
        -1.0,
        0.0,
        0.0,
        1.0,
        2.220446049250313e-16,
        0.0,
        0.0,
        0.0,
        0.0,
        1.0
      ],
      "name": "Sketchfab_model"
    },
    {
      "children": [
        2
      ],
      "matrix": [
        1.0,
        0.0,
        0.0,
        0.0,
        0.0,
        0.0,
        1.0,
        0.0,
        0.0,
        -1.0,
        0.0,
        0.0,
        0.0,
        0.0,
        0.0,
        1.0
      ],
      "name": "Tools.fbx"
    },
    {
      "children": [
        3,
        5,
        7,
        9
      ],
      "name": "RootNode"
    },
    {
      "children": [
        4
      ],
      "matrix": [
        100.0,
        0.0,
        0.0,
        0.0,
        0.0,
        -1.629206793918314e-05,
        -99.99999999999868,
        0.0,
        0.0,
        99.99999999999868,
        -1.629206793918314e-05,
        0.0,
        14.433236122131348,
        0.0,
        0.0,
        1.0
      ],
      "name": "Scissors2"
    },
    {
      "mesh": 0,
      "name": "Scissors2_Tools_0"
    },
    {
      "children": [
        6
      ],
      "matrix": [
        100.0,
        0.0,
        0.0,
        0.0,
        -0.0,
        -1.629206793918314e-05,
        -99.99999999999868,
        0.0,
        0.0,
        99.99999999999868,
        -1.629206793918314e-05,
        0.0,
        -14.964373588562012,
        0.0,
        0.0,
        1.0
      ],
      "name": "Corrector"
    },
    {
      "mesh": 1,
      "name": "Corrector_Tools_0"
    },
    {
      "children": [
        8
      ],
      "matrix": [
        100.0,
        0.0,
        0.0,
        0.0,
        -0.0,
        -1.629206793918314e-05,
        -99.99999999999868,
        0.0,
        0.0,
        99.99999999999868,
        -1.629206793918314e-05,
        0.0,
        -5.930327415466309,
        0.0,
        0.0,
        1.0
      ],
      "name": "Divider"
    },
    {
      "mesh": 2,
      "name": "Divider_Tools_0"
    },
    {
      "children": [
        10
      ],
      "matrix": [
        100.0,
        0.0,
        0.0,
        0.0,
        0.0,
        -1.629206793918314e-05,
        -99.99999999999868,
        0.0,
        0.0,
        99.99999999999868,
        -1.629206793918314e-05,
        0.0,
        3.5794425010681152,
        0.0,
        0.0,
        1.0
      ],
      "name": "Scissors1"
    },
    {
      "mesh": 3,
      "name": "Scissors1_Tools_0"
    }
  ],
  "samplers": [
    {
      "magFilter": 9729,
      "minFilter": 9987,
      "wrapS": 10497,
      "wrapT": 10497
    }
  ],
  "scene": 0,
  "scenes": [
    {
      "name": "Sketchfab_Scene",
      "nodes": [
        0
      ]
    }
  ],
  "textures": [
    {
      "sampler": 0,
      "source": 0
    },
    {
      "sampler": 0,
      "source": 1
    },
    {
      "sampler": 0,
      "source": 2
    }
  ]
}
