{
  "accessors": [
    {
      "bufferView": 2,
      "componentType": 5126,
      "count": 7682,
      "max": [
        0.601116418838501,
        0.6009981036186218,
        0.60101717710495
      ],
      "min": [
        -0.6011158227920532,
        -0.6009988188743591,
        -0.6010168790817261
      ],
      "type": "VEC3"
    },
    {
      "bufferView": 2,
      "byteOffset": 92184,
      "componentType": 5126,
      "count": 7682,
      "max": [
        0.9999452829360962,
        0.9997713565826416,
        0.999788224697113
      ],
      "min": [
        -0.9999452829360962,
        -0.9997713565826416,
        -0.999788224697113
      ],
      "type": "VEC3"
    },
    {
      "bufferView": 1,
      "componentType": 5126,
      "count": 7682,
      "max": [
        0.9423021078109741,
        0.8774386048316956
      ],
      "min": [
        0.433597594499588,
        0.11246989667415619
      ],
      "type": "VEC2"
    },
    {
      "bufferView": 0,
      "componentType": 5125,
      "count": 46080,
      "type": "SCALAR"
    },
    {
      "bufferView": 2,
      "byteOffset": 184368,
      "componentType": 5126,
      "count": 23014,
      "max": [
        0.540485680103302,
        0.5469462871551514,
        0.49449101090431213
      ],
      "min": [
        -0.5568987131118774,
        -0.5718029141426086,
        -0.5273550748825073
      ],
      "type": "VEC3"
    },
    {
      "bufferView": 2,
      "byteOffset": 460536,
      "componentType": 5126,
      "count": 23014,
      "max": [
        0.9999970197677612,
        0.9999873042106628,
        0.9999614953994751
      ],
      "min": [
        -0.9998961091041565,
        -0.9999278783798218,
        -0.9999972581863403
      ],
      "type": "VEC3"
    },
    {
      "bufferView": 1,
      "byteOffset": 61456,
      "componentType": 5126,
      "count": 23014,
      "max": [
        0.8874027132987976,
        0.8479496240615845
      ],
      "min": [
        0.4592638909816742,
        0.14202530682086945
      ],
      "type": "VEC2"
    },
    {
      "bufferView": 0,
      "byteOffset": 184320,
      "componentType": 5125,
      "count": 136332,
      "type": "SCALAR"
    }
  ],
  "asset": {
    "extras": {
      "author": "3Dee (https://sketchfab.com/mellydeeis)",
      "license": "SKETCHFAB Standard (https://sketchfab.com/licenses)",
      "source": "https://sketchfab.com/3d-models/art-marble-f8081ea92e5e4b47ab40eeba5bb0b27a",
      "title": "Art Marble"
    },
    "generator": "Sketchfab-12.67.0",
    "version": "2.0"
  },
  "bufferViews": [
    {
      "buffer": 0,
      "byteLength": 729648,
      "name": "floatBufferViews",
      "target": 34963
    },
    {
      "buffer": 0,
      "byteLength": 245568,
      "byteOffset": 729648,
      "byteStride": 8,
      "name": "floatBufferViews",
      "target": 34962
    },
    {
      "buffer": 0,
      "byteLength": 736704,
      "byteOffset": 975216,
      "byteStride": 12,
      "name": "floatBufferViews",
      "target": 34962
    }
  ],
  "buffers": [
    {
      "byteLength": 1711920,
      "uri": "scene.bin"
    }
  ],
  "extensionsUsed": [
    "KHR_materials_clearcoat",
    "KHR_materials_transmission"
  ],
  "images": [
    {
      "uri": "textures/Material_001_baseColor.jpeg"
    },
    {
      "uri": "textures/Material_001_metallicRoughness.png"
    },
    {
      "uri": "textures/Material_001_clearcoat.png"
    },
    {
      "uri": "textures/Material_metallicRoughness.png"
    }
  ],
  "materials": [
    {
      "alphaMode": "BLEND",
      "doubleSided": true,
      "emissiveFactor": [
        1.0,
        1.0,
        1.0
      ],
      "emissiveTexture": {
        "index": 0
      },
      "extensions": {
        "KHR_materials_clearcoat": {
          "clearcoatFactor": 0.4779874213836478,
          "clearcoatRoughnessFactor": 0.5283018867924528,
          "clearcoatRoughnessTexture": {
            "index": 1
          },
          "clearcoatTexture": {
            "index": 2
          }
        }
      },
      "name": "Material_001",
      "pbrMetallicRoughness": {
        "baseColorFactor": [
          0.13836477987421383,
          0.13836477987421383,
          0.13836477987421383,
          0.3081761006289308
        ],
        "baseColorTexture": {
          "index": 0
        },
        "metallicFactor": 0.89937106918239,
        "metallicRoughnessTexture": {
          "index": 1
        },
        "roughnessFactor": 0.0
      }
    },
    {
      "alphaMode": "BLEND",
      "doubleSided": true,
      "extensions": {
        "KHR_materials_clearcoat": {
          "clearcoatFactor": 1.0,
          "clearcoatRoughnessFactor": 0.07547169811320754
        },
        "KHR_materials_transmission": {
          "transmissionFactor": 0.7735849056603774
        }
      },
      "name": "Material",
      "pbrMetallicRoughness": {
        "baseColorFactor": [
          1.0,
          1.0,
          1.0,
          0.25
        ],
        "baseColorTexture": {
          "index": 0
        },
        "metallicRoughnessTexture": {
          "index": 3
        }
      }
    }
  ],
  "meshes": [
    {
      "name": "Material-material",
      "primitives": [
        {
          "attributes": {
            "NORMAL": 1,
            "POSITION": 0,
            "TEXCOORD_0": 2
          },
          "indices": 3,
          "material": 1,
          "mode": 4
        }
      ]
    },
    {
      "name": "Material_001-material",
      "primitives": [
        {
          "attributes": {
            "NORMAL": 5,
            "POSITION": 4,
            "TEXCOORD_0": 6
          },
          "indices": 7,
          "material": 0,
          "mode": 4
        }
      ]
    }
  ],
  "nodes": [
    {
      "children": [
        1
      ],
      "matrix": [
        1.0,
        0.0,
        0.0,
        0.0,
        0.0,
        2.220446049250313e-16,
        -1.0,
        0.0,
        0.0,
        1.0,
        2.220446049250313e-16,
        0.0,
        0.0,
        0.0,
        0.0,
        1.0
      ],
      "name": "Sketchfab_model"
    },
    {
      "children": [
        2,
        4
      ],
      "name": "Collada visual scene group"
    },
    {
      "children": [
        3
      ],
      "matrix": [
        0.7597273,
        -0.5186175,
        -1.401528,
        0.0,
        0.6013199,
        1.545437,
        -0.2459112,
        0.0,
        1.368086,
        -0.3912717,
        0.8863844,
        0.0,
        0.0,
        0.0,
        0.0,
        1.0
      ],
      "name": "Sphere_000"
    },
    {
      "mesh": 0,
      "name": "Material-material"
    },
    {
      "children": [
        5
      ],
      "matrix": [
        0.7597273,
        -0.5186175,
        -1.401528,
        0.0,
        0.6013199,
        1.545437,
        -0.2459112,
        0.0,
        1.368086,
        -0.3912717,
        0.8863844,
        0.0,
        0.0,
        0.0,
        0.0,
        1.0
      ],
      "name": "Sphere_127"
    },
    {
      "mesh": 1,
      "name": "Material_001-material"
    }
  ],
  "samplers": [
    {
      "magFilter": 9729,
      "minFilter": 9987,
      "wrapS": 10497,
      "wrapT": 10497
    }
  ],
  "scene": 0,
  "scenes": [
    {
      "name": "Sketchfab_Scene",
      "nodes": [
        0
      ]
    }
  ],
  "textures": [
    {
      "sampler": 0,
      "source": 0
    },
    {
      "sampler": 0,
      "source": 1
    },
    {
      "sampler": 0,
      "source": 2
    },
    {
      "sampler": 0,
      "source": 3
    }
  ]
}
