{
  "accessors": [
    {
      "bufferView": 2,
      "componentType": 5126,
      "count": 1056,
      "max": [
        -0.4655340015888214,
        0.6501759886741638,
        0.10392999649047852
      ],
      "min": [
        -1.0,
        -0.5103279948234558,
        -0.10392999649047852
      ],
      "type": "VEC3"
    },
    {
      "bufferView": 2,
      "byteOffset": 12672,
      "componentType": 5126,
      "count": 1056,
      "max": [
        1.0,
        1.0,
        1.0
      ],
      "min": [
        -1.0,
        -1.0,
        -1.0
      ],
      "type": "VEC3"
    },
    {
      "bufferView": 3,
      "componentType": 5126,
      "count": 1056,
      "max": [
        1.0,
        1.0,
        1.0,
        1.0
      ],
      "min": [
        -1.0,
        -1.0,
        -1.0,
        -1.0
      ],
      "type": "VEC4"
    },
    {
      "bufferView": 1,
      "componentType": 5126,
      "count": 1056,
      "max": [
        0.9967610239982605,
        0.9917050004005432
      ],
      "min": [
        0.002087830100208521,
        0.0012982500484213233
      ],
      "type": "VEC2"
    },
    {
      "bufferView": 0,
      "componentType": 5125,
      "count": 3516,
      "type": "SCALAR"
    },
    {
      "bufferView": 2,
      "byteOffset": 25344,
      "componentType": 5126,
      "count": 3427,
      "max": [
        -0.49664101004600525,
        0.545602023601532,
        0.07480140030384064
      ],
      "min": [
        -0.9688929915428162,
        -0.6501759886741638,
        -0.10392999649047852
      ],
      "type": "VEC3"
    },
    {
      "bufferView": 2,
      "byteOffset": 66468,
      "componentType": 5126,
      "count": 3427,
      "max": [
        1.0,
        1.0,
        1.0
      ],
      "min": [
        -1.0,
        -1.0,
        -1.0
      ],
      "type": "VEC3"
    },
    {
      "bufferView": 3,
      "byteOffset": 16896,
      "componentType": 5126,
      "count": 3427,
      "max": [
        0.9999930262565613,
        1.0,
        1.0,
        1.0
      ],
      "min": [
        -0.9999996423721313,
        -0.9999998211860657,
        -1.0,
        -1.0
      ],
      "type": "VEC4"
    },
    {
      "bufferView": 1,
      "byteOffset": 8448,
      "componentType": 5126,
      "count": 3427,
      "max": [
        0.9210389852523804,
        0.9968219995498657
      ],
      "min": [
        0.034948401153087616,
        0.025881100445985794
      ],
      "type": "VEC2"
    },
    {
      "bufferView": 0,
      "byteOffset": 14064,
      "componentType": 5125,
      "count": 16767,
      "type": "SCALAR"
    },
    {
      "bufferView": 2,
      "byteOffset": 107592,
      "componentType": 5126,
      "count": 118,
      "max": [
        -0.5220609903335571,
        0.2534860074520111,
        0.07159270346164703
      ],
      "min": [
        -0.9434729814529419,
        -0.32766199111938477,
        0.00962015986442566
      ],
      "type": "VEC3"
    },
    {
      "bufferView": 2,
      "byteOffset": 109008,
      "componentType": 5126,
      "count": 118,
      "max": [
        1.0,
        1.0,
        1.0
      ],
      "min": [
        -1.0,
        -1.0,
        -1.0
      ],
      "type": "VEC3"
    },
    {
      "bufferView": 3,
      "byteOffset": 71728,
      "componentType": 5126,
      "count": 118,
      "max": [
        1.0,
        1.0,
        1.0,
        1.0
      ],
      "min": [
        -1.0,
        -1.0,
        -1.0,
        1.0
      ],
      "type": "VEC4"
    },
    {
      "bufferView": 1,
      "byteOffset": 35864,
      "componentType": 5126,
      "count": 118,
      "max": [
        0.8771129846572876,
        0.9010239839553833
      ],
      "min": [
        0.047658901661634445,
        0.023444099351763725
      ],
      "type": "VEC2"
    },
    {
      "bufferView": 0,
      "byteOffset": 81132,
      "componentType": 5125,
      "count": 282,
      "type": "SCALAR"
    },
    {
      "bufferView": 2,
      "byteOffset": 110424,
      "componentType": 5126,
      "count": 109,
      "max": [
        -0.5661680102348328,
        0.5239750146865845,
        0.034775398671627045
      ],
      "min": [
        -0.899366021156311,
        -0.3065840005874634,
        -0.07733260095119476
      ],
      "type": "VEC3"
    },
    {
      "bufferView": 2,
      "byteOffset": 111732,
      "componentType": 5126,
      "count": 109,
      "max": [
        1.0,
        0.1366940438747406,
        1.0
      ],
      "min": [
        -1.0,
        -0.1366940438747406,
        -0.0
      ],
      "type": "VEC3"
    },
    {
      "bufferView": 3,
      "byteOffset": 73616,
      "componentType": 5126,
      "count": 109,
      "max": [
        1.0,
        2.5023854277606006e-07,
        1.0,
        1.0
      ],
      "min": [
        0.0,
        -0.6352110505104065,
        -1.0,
        1.0
      ],
      "type": "VEC4"
    },
    {
      "bufferView": 1,
      "byteOffset": 36808,
      "componentType": 5126,
      "count": 109,
      "max": [
        0.9943919777870178,
        0.9998639822006226
      ],
      "min": [
        0.006271780002862215,
        0.00013563799438998103
      ],
      "type": "VEC2"
    },
    {
      "bufferView": 0,
      "byteOffset": 82260,
      "componentType": 5125,
      "count": 498,
      "type": "SCALAR"
    }
  ],
  "asset": {
    "extras": {
      "author": "simviz.net (https://sketchfab.com/simonscat)",
      "license": "SKETCHFAB Standard (https://sketchfab.com/licenses)",
      "source": "https://sketchfab.com/3d-models/antique-victorian-clock-9e5eed5a6d954228b62460a1ef0df6a7",
      "title": "Antique Victorian Clock"
    },
    "generator": "Sketchfab-12.68.0",
    "version": "2.0"
  },
  "bufferViews": [
    {
      "buffer": 0,
      "byteLength": 84252,
      "name": "floatBufferViews",
      "target": 34963
    },
    {
      "buffer": 0,
      "byteLength": 37680,
      "byteOffset": 84252,
      "byteStride": 8,
      "name": "floatBufferViews",
      "target": 34962
    },
    {
      "buffer": 0,
      "byteLength": 113040,
      "byteOffset": 121932,
      "byteStride": 12,
      "name": "floatBufferViews",
      "target": 34962
    },
    {
      "buffer": 0,
      "byteLength": 75360,
      "byteOffset": 234972,
      "byteStride": 16,
      "name": "floatBufferViews",
      "target": 34962
    }
  ],
  "buffers": [
    {
      "byteLength": 310332,
      "uri": "scene.bin"
    }
  ],
  "extensionsUsed": [
    "KHR_materials_transmission"
  ],
  "images": [
    {
      "uri": "textures/ClockGlass_baseColor.png"
    },
    {
      "uri": "textures/ClockGlass_metallicRoughness.png"
    },
    {
      "uri": "textures/ClockGlass_normal.png"
    },
    {
      "uri": "textures/ClockGlass_transmission.png"
    },
    {
      "uri": "textures/DefaultMaterial_baseColor.jpeg"
    },
    {
      "uri": "textures/DefaultMaterial_metallicRoughness.png"
    },
    {
      "uri": "textures/DefaultMaterial_normal.png"
    }
  ],
  "materials": [
    {
      "alphaMode": "BLEND",
      "doubleSided": true,
      "extensions": {
        "KHR_materials_transmission": {
          "transmissionFactor": 1.0,
          "transmissionTexture": {
            "index": 3
          }
        }
      },
      "name": "ClockGlass",
      "normalTexture": {
        "index": 2
      },
      "pbrMetallicRoughness": {
        "baseColorTexture": {
          "index": 0
        },
        "metallicRoughnessTexture": {
          "index": 1
        }
      }
    },
    {
      "name": "DefaultMaterial",
      "normalTexture": {
        "index": 6
      },
      "occlusionTexture": {
        "index": 5
      },
      "pbrMetallicRoughness": {
        "baseColorTexture": {
          "index": 4
        },
        "metallicRoughnessTexture": {
          "index": 5
        }
      }
    }
  ],
  "meshes": [
    {
      "name": "defaultMaterial",
      "primitives": [
        {
          "attributes": {
            "NORMAL": 1,
            "POSITION": 0,
            "TANGENT": 2,
            "TEXCOORD_0": 3
          },
          "indices": 4,
          "material": 1,
          "mode": 4
        }
      ]
    },
    {
      "name": "defaultMaterial",
      "primitives": [
        {
          "attributes": {
            "NORMAL": 6,
            "POSITION": 5,
            "TANGENT": 7,
            "TEXCOORD_0": 8
          },
          "indices": 9,
          "material": 1,
          "mode": 4
        }
      ]
    },
    {
      "name": "defaultMaterial",
      "primitives": [
        {
          "attributes": {
            "NORMAL": 11,
            "POSITION": 10,
            "TANGENT": 12,
            "TEXCOORD_0": 13
          },
          "indices": 14,
          "material": 1,
          "mode": 4
        }
      ]
    },
    {
      "name": "defaultMaterial",
      "primitives": [
        {
          "attributes": {
            "NORMAL": 16,
            "POSITION": 15,
            "TANGENT": 17,
            "TEXCOORD_0": 18
          },
          "indices": 19,
          "material": 0,
          "mode": 4
        }
      ]
    }
  ],
  "nodes": [
    {
      "children": [
        1
      ],
      "matrix": [
        1.256263017654419,
        0.0,
        0.0,
        0.0,
        0.0,
        2.789464254370031e-16,
        -1.256263017654419,
        0.0,
        0.0,
        1.256263017654419,
        2.789464254370031e-16,
        0.0,
        0.0,
        3.7000000840947678e-09,
        8.215650568954053e-25,
        1.0
      ],
      "name": "Sketchfab_model"
    },
    {
      "children": [
        2,
        4,
        6,
        8
      ],
      "matrix": [
        1.0,
        0.0,
        0.0,
        0.0,
        0.0,
        -4.371139006309477e-08,
        0.999999999999999,
        0.0,
        0.0,
        -0.999999999999999,
        -4.371139006309477e-08,
        0.0,
        0.0,
        0.0,
        0.0,
        1.0
      ],
      "name": "Collada visual scene group"
    },
    {
      "children": [
        3
      ],
      "name": "Clock01_low"
    },
    {
      "mesh": 0,
      "name": "defaultMaterial"
    },
    {
      "children": [
        5
      ],
      "name": "Clock02_low"
    },
    {
      "mesh": 1,
      "name": "defaultMaterial"
    },
    {
      "children": [
        7
      ],
      "name": "Clock03_low"
    },
    {
      "mesh": 2,
      "name": "defaultMaterial"
    },
    {
      "children": [
        9
      ],
      "name": "ClockGlass"
    },
    {
      "mesh": 3,
      "name": "defaultMaterial"
    }
  ],
  "samplers": [
    {
      "magFilter": 9729,
      "minFilter": 9987,
      "wrapS": 10497,
      "wrapT": 10497
    }
  ],
  "scene": 0,
  "scenes": [
    {
      "name": "Sketchfab_Scene",
      "nodes": [
        0
      ]
    }
  ],
  "textures": [
    {
      "sampler": 0,
      "source": 0
    },
    {
      "sampler": 0,
      "source": 1
    },
    {
      "sampler": 0,
      "source": 2
    },
    {
      "sampler": 0,
      "source": 3
    },
    {
      "sampler": 0,
      "source": 4
    },
    {
      "sampler": 0,
      "source": 5
    },
    {
      "sampler": 0,
      "source": 6
    }
  ]
}
