{
  "accessors": [
    {
      "bufferView": 2,
      "componentType": 5126,
      "count": 50,
      "max": [
        1360.1572265625,
        1358.2037353515625,
        0.0
      ],
      "min": [
        -1360.512939453125,
        -1357.09814453125,
        0.0
      ],
      "type": "VEC3"
    },
    {
      "bufferView": 2,
      "byteOffset": 600,
      "componentType": 5126,
      "count": 50,
      "max": [
        0.0,
        0.0,
        1.0
      ],
      "min": [
        0.0,
        0.0,
        1.0
      ],
      "type": "VEC3"
    },
    {
      "bufferView": 1,
      "componentType": 5126,
      "count": 50,
      "max": [
        0.9990134239196777,
        1.0
      ],
      "min": [
        0.0009865760803222656,
        0.0
      ],
      "type": "VEC2"
    },
    {
      "bufferView": 0,
      "componentType": 5125,
      "count": 144,
      "type": "SCALAR"
    },
    {
      "bufferView": 2,
      "byteOffset": 1200,
      "componentType": 5126,
      "count": 8424,
      "max": [
        293.75299072265625,
        221.47610473632813,
        717.4738159179688
      ],
      "min": [
        -308.4833984375,
        -204.12738037109375,
        0.015078059397637844
      ],
      "type": "VEC3"
    },
    {
      "bufferView": 2,
      "byteOffset": 102288,
      "componentType": 5126,
      "count": 8424,
      "max": [
        0.9999955892562866,
        0.9999500513076782,
        1.0
      ],
      "min": [
        -0.9999955892562866,
        -0.9999500513076782,
        -1.0
      ],
      "type": "VEC3"
    },
    {
      "bufferView": 1,
      "byteOffset": 400,
      "componentType": 5126,
      "count": 8424,
      "max": [
        0.9945497512817383,
        0.9919995665550232
      ],
      "min": [
        0.009888731874525547,
        0.007650960702449083
      ],
      "type": "VEC2"
    },
    {
      "bufferView": 0,
      "byteOffset": 576,
      "componentType": 5125,
      "count": 31776,
      "type": "SCALAR"
    }
  ],
  "asset": {
    "extras": {
      "author": "ARTIUM3D (https://sketchfab.com/artium3d)",
      "license": "SKETCHFAB Standard (https://sketchfab.com/licenses)",
      "source": "https://sketchfab.com/3d-models/sewing-table-france-19-century-07d9c17bd5d745b8b7b429e827e84de3",
      "title": "Sewing table – France, 19. century"
    },
    "generator": "Sketchfab-12.68.0",
    "version": "2.0"
  },
  "bufferViews": [
    {
      "buffer": 0,
      "byteLength": 127680,
      "name": "floatBufferViews",
      "target": 34963
    },
    {
      "buffer": 0,
      "byteLength": 67792,
      "byteOffset": 127680,
      "byteStride": 8,
      "name": "floatBufferViews",
      "target": 34962
    },
    {
      "buffer": 0,
      "byteLength": 203376,
      "byteOffset": 195472,
      "byteStride": 12,
      "name": "floatBufferViews",
      "target": 34962
    }
  ],
  "buffers": [
    {
      "byteLength": 398848,
      "uri": "scene.bin"
    }
  ],
  "images": [
    {
      "uri": "textures/Material_328_baseColor.png"
    },
    {
      "uri": "textures/Material_328_metallicRoughness.png"
    },
    {
      "uri": "textures/Material_28_baseColor.png"
    }
  ],
  "materials": [
    {
      "doubleSided": true,
      "name": "Material_328",
      "pbrMetallicRoughness": {
        "baseColorTexture": {
          "index": 0
        },
        "metallicFactor": 0.6,
        "metallicRoughnessTexture": {
          "index": 1
        },
        "roughnessFactor": 0.2
      }
    },
    {
      "alphaMode": "BLEND",
      "doubleSided": true,
      "name": "Material_28",
      "pbrMetallicRoughness": {
        "baseColorTexture": {
          "index": 2
        },
        "metallicFactor": 0.0,
        "roughnessFactor": 0.3004954268
      }
    }
  ],
  "meshes": [
    {
      "name": "Object_0",
      "primitives": [
        {
          "attributes": {
            "NORMAL": 1,
            "POSITION": 0,
            "TEXCOORD_0": 2
          },
          "indices": 3,
          "material": 1,
          "mode": 4
        }
      ]
    },
    {
      "name": "Object_1",
      "primitives": [
        {
          "attributes": {
            "NORMAL": 5,
            "POSITION": 4,
            "TEXCOORD_0": 6
          },
          "indices": 7,
          "material": 0,
          "mode": 4
        }
      ]
    }
  ],
  "nodes": [
    {
      "children": [
        1
      ],
      "matrix": [
        0.001253251451998949,
        0.0,
        0.0,
        0.0,
        0.0,
        2.782777235308285e-19,
        -0.001253251451998949,
        0.0,
        0.0,
        0.001253251451998949,
        2.782777235308285e-19,
        0.0,
        0.0,
        0.0,
        0.0,
        1.0
      ],
      "name": "Sketchfab_model"
    },
    {
      "children": [
        2,
        5
      ],
      "name": "5f046bf44ca94d8abae9de897b75ffb2.3ds"
    },
    {
      "children": [
        3
      ],
      "matrix": [
        16.520431518554688,
        0.0,
        0.0,
        0.0,
        0.0,
        16.520431518554688,
        0.0,
        0.0,
        0.0,
        0.0,
        1.0,
        0.0,
        -0.17788410186767578,
        0.552708625793457,
        0.0,
        1.0
      ],
      "name": "Cylinder00"
    },
    {
      "children": [
        4
      ],
      "matrix": [
        0.06053110651963687,
        0.0,
        0.0,
        0.0,
        0.0,
        0.06053110651963687,
        0.0,
        0.0,
        0.0,
        0.0,
        1.0,
        0.0,
        0.01076752151830222,
        -0.03345606470222586,
        -0.0,
        1.0
      ],
      "name": "3DSMeshMatrix"
    },
    {
      "mesh": 0,
      "name": "Object_4"
    },
    {
      "children": [
        6
      ],
      "matrix": [
        -1.148650050163269,
        -0.029083622619509697,
        0.0,
        0.0,
        0.029083622619509697,
        -1.148650050163269,
        0.0,
        0.0,
        0.0,
        0.0,
        1.1490182876586914,
        0.0,
        -7.3652191162109375,
        8.674367904663086,
        0.0,
        1.0
      ],
      "name": "Cube"
    },
    {
      "children": [
        7
      ],
      "matrix": [
        -0.8700293096250343,
        0.022029047316559334,
        0.0,
        0.0,
        -0.022029047316559334,
        -0.8700293096250343,
        0.0,
        0.0,
        0.0,
        0.0,
        0.8703081671899757,
        0.0,
        -6.21686844190104,
        7.709203079935418,
        -0.0,
        1.0
      ],
      "name": "3DSMeshMatrix"
    },
    {
      "mesh": 1,
      "name": "Object_7"
    }
  ],
  "samplers": [
    {
      "magFilter": 9729,
      "minFilter": 9987,
      "wrapS": 10497,
      "wrapT": 10497
    }
  ],
  "scene": 0,
  "scenes": [
    {
      "name": "Sketchfab_Scene",
      "nodes": [
        0
      ]
    }
  ],
  "textures": [
    {
      "sampler": 0,
      "source": 0
    },
    {
      "sampler": 0,
      "source": 1
    },
    {
      "sampler": 0,
      "source": 2
    }
  ]
}
