{
  "accessors": [
    {
      "bufferView": 2,
      "componentType": 5126,
      "count": 7580,
      "max": [
        0.13205979764461517,
        0.0558970645070076,
        0.1776883453130722
      ],
      "min": [
        -0.14256826043128967,
        -0.05865442752838135,
        4.7050416469573975e-06
      ],
      "type": "VEC3"
    },
    {
      "bufferView": 2,
      "byteOffset": 90960,
      "componentType": 5126,
      "count": 7580,
      "max": [
        1.0,
        1.0,
        1.0
      ],
      "min": [
        -1.0,
        -1.0,
        -1.0
      ],
      "type": "VEC3"
    },
    {
      "bufferView": 3,
      "componentType": 5126,
      "count": 7580,
      "max": [
        1.0,
        1.0,
        0.9999973177909851,
        1.0
      ],
      "min": [
        -1.0,
        -1.0,
        -1.0,
        -1.0
      ],
      "type": "VEC4"
    },
    {
      "bufferView": 1,
      "componentType": 5126,
      "count": 7580,
      "max": [
        0.9996746182441711,
        0.9944686889648438
      ],
      "min": [
        0.00032537203514948487,
        0.00032537203514948487
      ],
      "type": "VEC2"
    },
    {
      "bufferView": 0,
      "componentType": 5125,
      "count": 26958,
      "type": "SCALAR"
    },
    {
      "bufferView": 2,
      "byteOffset": 181920,
      "componentType": 5126,
      "count": 36,
      "max": [
        0.09733278304338455,
        -0.022590244188904762,
        0.12958046793937683
      ],
      "min": [
        0.04450672119855881,
        -0.02460673451423645,
        0.07675441354513168
      ],
      "type": "VEC3"
    },
    {
      "bufferView": 2,
      "byteOffset": 182352,
      "componentType": 5126,
      "count": 36,
      "max": [
        0.17544329166412354,
        -0.9844895601272583,
        0.17544294893741608
      ],
      "min": [
        -0.17544330656528473,
        -0.9991072416305542,
        -0.1754431575536728
      ],
      "type": "VEC3"
    },
    {
      "bufferView": 3,
      "byteOffset": 121280,
      "componentType": 5126,
      "count": 36,
      "max": [
        0.2631102204322815,
        0.1695387214422226,
        0.9662209749221802,
        -1.0
      ],
      "min": [
        0.24837876856327057,
        -0.16953974962234497,
        0.9513584971427917,
        -1.0
      ],
      "type": "VEC4"
    },
    {
      "bufferView": 1,
      "byteOffset": 60640,
      "componentType": 5126,
      "count": 36,
      "max": [
        0.8175248503684998,
        0.8417292237281799
      ],
      "min": [
        0.13976937532424927,
        0.16396841406822205
      ],
      "type": "VEC2"
    },
    {
      "bufferView": 0,
      "byteOffset": 107832,
      "componentType": 5125,
      "count": 174,
      "type": "SCALAR"
    }
  ],
  "asset": {
    "extras": {
      "author": "HardIdea (https://sketchfab.com/s86b16)",
      "license": "SKETCHFAB Editorial (https://sketchfab.com/licenses)",
      "source": "https://sketchfab.com/3d-models/24-sewing-machine-d20210124-9df7ef45621e49378d6e2c14a20e584a",
      "title": "24 Sewing Machine D20210124"
    },
    "generator": "Sketchfab-12.67.0",
    "version": "2.0"
  },
  "bufferViews": [
    {
      "buffer": 0,
      "byteLength": 108528,
      "name": "floatBufferViews",
      "target": 34963
    },
    {
      "buffer": 0,
      "byteLength": 60928,
      "byteOffset": 108528,
      "byteStride": 8,
      "name": "floatBufferViews",
      "target": 34962
    },
    {
      "buffer": 0,
      "byteLength": 182784,
      "byteOffset": 169456,
      "byteStride": 12,
      "name": "floatBufferViews",
      "target": 34962
    },
    {
      "buffer": 0,
      "byteLength": 121856,
      "byteOffset": 352240,
      "byteStride": 16,
      "name": "floatBufferViews",
      "target": 34962
    }
  ],
  "buffers": [
    {
      "byteLength": 474096,
      "uri": "scene.bin"
    }
  ],
  "images": [
    {
      "uri": "textures/sewing_machine_baseColor.png"
    },
    {
      "uri": "textures/sewing_machine_metallicRoughness.png"
    },
    {
      "uri": "textures/sewing_machine_normal.png"
    },
    {
      "uri": "textures/glass_baseColor.png"
    },
    {
      "uri": "textures/glass_metallicRoughness.png"
    },
    {
      "uri": "textures/glass_normal.png"
    }
  ],
  "materials": [
    {
      "doubleSided": true,
      "name": "sewing_machine",
      "normalTexture": {
        "index": 2
      },
      "occlusionTexture": {
        "index": 1
      },
      "pbrMetallicRoughness": {
        "baseColorTexture": {
          "index": 0
        },
        "metallicRoughnessTexture": {
          "index": 1
        }
      }
    },
    {
      "alphaMode": "BLEND",
      "doubleSided": true,
      "name": "glass",
      "normalTexture": {
        "index": 5
      },
      "occlusionTexture": {
        "index": 4
      },
      "pbrMetallicRoughness": {
        "baseColorFactor": [
          1.0,
          1.0,
          1.0,
          0.5754000391176525
        ],
        "baseColorTexture": {
          "index": 3
        },
        "metallicRoughnessTexture": {
          "index": 4
        }
      }
    }
  ],
  "meshes": [
    {
      "name": "Cube.013_sewing machine_0",
      "primitives": [
        {
          "attributes": {
            "NORMAL": 1,
            "POSITION": 0,
            "TANGENT": 2,
            "TEXCOORD_0": 3
          },
          "indices": 4,
          "material": 0,
          "mode": 4
        }
      ]
    },
    {
      "name": "Cube.001_glass_0",
      "primitives": [
        {
          "attributes": {
            "NORMAL": 6,
            "POSITION": 5,
            "TANGENT": 7,
            "TEXCOORD_0": 8
          },
          "indices": 9,
          "material": 1,
          "mode": 4
        }
      ]
    }
  ],
  "nodes": [
    {
      "children": [
        1
      ],
      "matrix": [
        1.0,
        0.0,
        0.0,
        0.0,
        0.0,
        2.220446049250313e-16,
        -1.0,
        0.0,
        0.0,
        1.0,
        2.220446049250313e-16,
        0.0,
        0.0,
        0.0,
        0.0,
        1.0
      ],
      "name": "Sketchfab_model"
    },
    {
      "children": [
        2
      ],
      "matrix": [
        1.0,
        0.0,
        0.0,
        0.0,
        0.0,
        0.0,
        1.0,
        0.0,
        0.0,
        -1.0,
        0.0,
        0.0,
        0.0,
        0.0,
        0.0,
        1.0
      ],
      "name": "b5af6b97a962458e8f257bf34a7e224e.fbx"
    },
    {
      "children": [
        3,
        5
      ],
      "name": "RootNode"
    },
    {
      "children": [
        4
      ],
      "matrix": [
        100.0,
        0.0,
        0.0,
        0.0,
        0.0,
        -1.629206793918314e-05,
        -99.99999999999868,
        0.0,
        0.0,
        99.99999999999868,
        -1.629206793918314e-05,
        0.0,
        0.0,
        0.0,
        0.0,
        1.0
      ],
      "name": "Cube.013"
    },
    {
      "mesh": 0,
      "name": "Cube.013_sewing machine_0"
    },
    {
      "children": [
        6
      ],
      "matrix": [
        100.0,
        0.0,
        0.0,
        0.0,
        0.0,
        -1.629206793918314e-05,
        -99.99999999999868,
        0.0,
        0.0,
        99.99999999999868,
        -1.629206793918314e-05,
        0.0,
        0.0,
        0.0,
        0.20893369615077972,
        1.0
      ],
      "name": "Cube.001"
    },
    {
      "mesh": 1,
      "name": "Cube.001_glass_0"
    }
  ],
  "samplers": [
    {
      "magFilter": 9729,
      "minFilter": 9987,
      "wrapS": 10497,
      "wrapT": 10497
    }
  ],
  "scene": 0,
  "scenes": [
    {
      "name": "Sketchfab_Scene",
      "nodes": [
        0
      ]
    }
  ],
  "textures": [
    {
      "sampler": 0,
      "source": 0
    },
    {
      "sampler": 0,
      "source": 1
    },
    {
      "sampler": 0,
      "source": 2
    },
    {
      "sampler": 0,
      "source": 3
    },
    {
      "sampler": 0,
      "source": 4
    },
    {
      "sampler": 0,
      "source": 5
    }
  ]
}
