{
  "accessors": [
    {
      "bufferView": 2,
      "componentType": 5126,
      "count": 9421,
      "max": [
        7.8566436767578125,
        20.4000301361084,
        23.001333236694336
      ],
      "min": [
        -6.147918701171875,
        -0.0074634552001953125,
        -14.924707412719727
      ],
      "type": "VEC3"
    },
    {
      "bufferView": 2,
      "byteOffset": 113052,
      "componentType": 5126,
      "count": 9421,
      "max": [
        0.9999738931655884,
        0.9999995827674866,
        0.9997380375862122
      ],
      "min": [
        -0.9997963309288025,
        -0.9999055862426758,
        -0.9992910623550415
      ],
      "type": "VEC3"
    },
    {
      "bufferView": 1,
      "componentType": 5126,
      "count": 9421,
      "max": [
        0.9994772672653198,
        1.0000009536743164
      ],
      "min": [
        -0.0009682268719188869,
        -0.00034014700213447213
      ],
      "type": "VEC2"
    },
    {
      "bufferView": 0,
      "componentType": 5125,
      "count": 48999,
      "type": "SCALAR"
    }
  ],
  "asset": {
    "extras": {
      "author": "Scott Cotterell (https://sketchfab.com/skcotterell)",
      "license": "SKETCHFAB Editorial (https://sketchfab.com/licenses)",
      "source": "https://sketchfab.com/3d-models/converse-all-star-ba7cec4b8be04cadb255e939f8bb537c",
      "title": "Converse All Star"
    },
    "generator": "Sketchfab-12.65.0",
    "version": "2.0"
  },
  "bufferViews": [
    {
      "buffer": 0,
      "byteLength": 195996,
      "name": "floatBufferViews",
      "target": 34963
    },
    {
      "buffer": 0,
      "byteLength": 75368,
      "byteOffset": 195996,
      "byteStride": 8,
      "name": "floatBufferViews",
      "target": 34962
    },
    {
      "buffer": 0,
      "byteLength": 226104,
      "byteOffset": 271364,
      "byteStride": 12,
      "name": "floatBufferViews",
      "target": 34962
    }
  ],
  "buffers": [
    {
      "byteLength": 497468,
      "uri": "scene.bin"
    }
  ],
  "images": [
    {
      "uri": "textures/M_ShoeMaster_baseColor.png"
    },
    {
      "uri": "textures/M_ShoeMaster_metallicRoughness.png"
    }
  ],
  "materials": [
    {
      "doubleSided": true,
      "name": "M_ShoeMaster",
      "pbrMetallicRoughness": {
        "baseColorTexture": {
          "index": 0
        },
        "metallicFactor": 0.96753454,
        "metallicRoughnessTexture": {
          "index": 1
        }
      }
    }
  ],
  "meshes": [
    {
      "name": "pCube2_M_ShoeMaster_0",
      "primitives": [
        {
          "attributes": {
            "NORMAL": 1,
            "POSITION": 0,
            "TEXCOORD_0": 2
          },
          "indices": 3,
          "material": 0,
          "mode": 4
        }
      ]
    }
  ],
  "nodes": [
    {
      "children": [
        1
      ],
      "matrix": [
        1.0,
        0.0,
        0.0,
        0.0,
        0.0,
        2.220446049250313e-16,
        -1.0,
        0.0,
        0.0,
        1.0,
        2.220446049250313e-16,
        0.0,
        0.0,
        0.0,
        0.0,
        1.0
      ],
      "name": "Sketchfab_model"
    },
    {
      "children": [
        2
      ],
      "matrix": [
        1.0,
        0.0,
        0.0,
        0.0,
        0.0,
        0.0,
        1.0,
        0.0,
        0.0,
        -1.0,
        0.0,
        0.0,
        0.0,
        0.0,
        0.0,
        1.0
      ],
      "name": "e64ccd04dc0e4bd99230a4682ac8609d.fbx"
    },
    {
      "children": [
        3
      ],
      "name": "RootNode"
    },
    {
      "children": [
        4
      ],
      "name": "pCube2"
    },
    {
      "mesh": 0,
      "name": "pCube2_M_ShoeMaster_0"
    }
  ],
  "samplers": [
    {
      "magFilter": 9729,
      "minFilter": 9987,
      "wrapS": 10497,
      "wrapT": 10497
    }
  ],
  "scene": 0,
  "scenes": [
    {
      "name": "Sketchfab_Scene",
      "nodes": [
        0
      ]
    }
  ],
  "textures": [
    {
      "sampler": 0,
      "source": 0
    },
    {
      "sampler": 0,
      "source": 1
    }
  ]
}
