{
  "accessors": [
    {
      "bufferView": 2,
      "componentType": 5126,
      "count": 166,
      "max": [
        0.885233998298645,
        0.7329810261726379,
        0.6689540147781372
      ],
      "min": [
        -0.7587310075759888,
        -0.6869739890098572,
        0.602528989315033
      ],
      "type": "VEC3"
    },
    {
      "bufferView": 2,
      "byteOffset": 1992,
      "componentType": 5126,
      "count": 166,
      "max": [
        0.9813963770866394,
        0.929068386554718,
        0.9764913320541382
      ],
      "min": [
        -0.9506440162658691,
        -0.7633328437805176,
        -0.9500064253807068
      ],
      "type": "VEC3"
    },
    {
      "bufferView": 3,
      "componentType": 5126,
      "count": 166,
      "max": [
        0.9570248126983643,
        0.8283583521842957,
        0.9741577506065369,
        1.0
      ],
      "min": [
        -0.9878758192062378,
        -0.994562029838562,
        -0.8912623524665833,
        -1.0
      ],
      "type": "VEC4"
    },
    {
      "bufferView": 1,
      "componentType": 5126,
      "count": 166,
      "max": [
        0.8104000091552734,
        0.9800000190734863
      ],
      "min": [
        0.019999999552965164,
        0.019999999552965164
      ],
      "type": "VEC2"
    },
    {
      "bufferView": 0,
      "componentType": 5125,
      "count": 666,
      "type": "SCALAR"
    },
    {
      "bufferView": 2,
      "byteOffset": 3984,
      "componentType": 5126,
      "count": 2967,
      "max": [
        0.8782870173454285,
        0.7724199891090393,
        0.6957020163536072
      ],
      "min": [
        -0.6915119886398315,
        -0.8548759818077087,
        -0.670229971408844
      ],
      "type": "VEC3"
    },
    {
      "bufferView": 2,
      "byteOffset": 39588,
      "componentType": 5126,
      "count": 2967,
      "max": [
        0.9982528686523438,
        0.9999071359634399,
        0.9992188215255737
      ],
      "min": [
        -0.9982152581214905,
        -0.9998798370361328,
        -0.9997991919517517
      ],
      "type": "VEC3"
    },
    {
      "bufferView": 3,
      "byteOffset": 2656,
      "componentType": 5126,
      "count": 2967,
      "max": [
        0.9999867677688599,
        0.994434118270874,
        0.9999876022338867,
        1.0
      ],
      "min": [
        -0.9999342560768127,
        -0.9676617980003357,
        -0.9999474883079529,
        1.0
      ],
      "type": "VEC4"
    },
    {
      "bufferView": 1,
      "byteOffset": 1328,
      "componentType": 5126,
      "count": 2967,
      "max": [
        0.972000002861023,
        0.9897000193595886
      ],
      "min": [
        0.012000000104308128,
        0.6388999819755554
      ],
      "type": "VEC2"
    },
    {
      "bufferView": 0,
      "byteOffset": 2664,
      "componentType": 5125,
      "count": 14772,
      "type": "SCALAR"
    },
    {
      "bufferView": 2,
      "byteOffset": 75192,
      "componentType": 5126,
      "count": 200,
      "max": [
        0.867933988571167,
        1.0,
        0.876583993434906
      ],
      "min": [
        -0.885233998298645,
        -1.0,
        -0.876583993434906
      ],
      "type": "VEC3"
    },
    {
      "bufferView": 2,
      "byteOffset": 77592,
      "componentType": 5126,
      "count": 200,
      "max": [
        0.8409704566001892,
        0.7539862394332886,
        0.8409704566001892
      ],
      "min": [
        -0.8409704566001892,
        -0.7538049817085266,
        -0.8409411907196045
      ],
      "type": "VEC3"
    },
    {
      "bufferView": 3,
      "byteOffset": 50128,
      "componentType": 5126,
      "count": 200,
      "max": [
        1.0,
        0.7461612820625305,
        0.999994158744812,
        1.0
      ],
      "min": [
        -0.9999898672103882,
        -0.7461612224578857,
        -0.9999895691871643,
        1.0
      ],
      "type": "VEC4"
    },
    {
      "bufferView": 1,
      "byteOffset": 25064,
      "componentType": 5126,
      "count": 200,
      "max": [
        0.992900013923645,
        1.0089999437332153
      ],
      "min": [
        0.016899999231100082,
        0.019999999552965164
      ],
      "type": "VEC2"
    },
    {
      "bufferView": 0,
      "byteOffset": 61752,
      "componentType": 5125,
      "count": 672,
      "type": "SCALAR"
    },
    {
      "bufferView": 2,
      "byteOffset": 79992,
      "componentType": 5126,
      "count": 34,
      "max": [
        0.6295999884605408,
        0.7630910277366638,
        0.6382499933242798
      ],
      "min": [
        -0.6468999981880188,
        -0.7662450075149536,
        -0.6382499933242798
      ],
      "type": "VEC3"
    },
    {
      "bufferView": 2,
      "byteOffset": 80400,
      "componentType": 5126,
      "count": 34,
      "max": [
        0.793789803981781,
        0.6081932187080383,
        0.7938381433486938
      ],
      "min": [
        -0.7938381433486938,
        -0.6081932187080383,
        -0.7938381433486938
      ],
      "type": "VEC3"
    },
    {
      "bufferView": 3,
      "byteOffset": 53328,
      "componentType": 5126,
      "count": 34,
      "max": [
        0.9991881251335144,
        0.09532495588064194,
        0.9991881847381592,
        1.0
      ],
      "min": [
        -0.9991878867149353,
        -0.09532495588064194,
        -0.9991916418075562,
        1.0
      ],
      "type": "VEC4"
    },
    {
      "bufferView": 1,
      "byteOffset": 26664,
      "componentType": 5126,
      "count": 34,
      "max": [
        0.9010999798774719,
        0.5493000149726868
      ],
      "min": [
        0.014499999582767487,
        0.20900000631809235
      ],
      "type": "VEC2"
    },
    {
      "bufferView": 0,
      "byteOffset": 64440,
      "componentType": 5125,
      "count": 96,
      "type": "SCALAR"
    }
  ],
  "asset": {
    "extras": {
      "author": "Paubr (https://sketchfab.com/paubr)",
      "license": "SKETCHFAB Standard (https://sketchfab.com/licenses)",
      "source": "https://sketchfab.com/3d-models/thread-with-needle-56c30649f16142468bb805ee95bd9988",
      "title": "Thread with needle"
    },
    "generator": "Sketchfab-12.66.0",
    "version": "2.0"
  },
  "bufferViews": [
    {
      "buffer": 0,
      "byteLength": 64824,
      "name": "floatBufferViews",
      "target": 34963
    },
    {
      "buffer": 0,
      "byteLength": 26936,
      "byteOffset": 64824,
      "byteStride": 8,
      "name": "floatBufferViews",
      "target": 34962
    },
    {
      "buffer": 0,
      "byteLength": 80808,
      "byteOffset": 91760,
      "byteStride": 12,
      "name": "floatBufferViews",
      "target": 34962
    },
    {
      "buffer": 0,
      "byteLength": 53872,
      "byteOffset": 172568,
      "byteStride": 16,
      "name": "floatBufferViews",
      "target": 34962
    }
  ],
  "buffers": [
    {
      "byteLength": 226440,
      "uri": "scene.bin"
    }
  ],
  "images": [
    {
      "uri": "textures/WOOD_baseColor.jpeg"
    },
    {
      "uri": "textures/WOOD_metallicRoughness.png"
    },
    {
      "uri": "textures/WOOD_normal.png"
    },
    {
      "uri": "textures/ROPE_baseColor.jpeg"
    },
    {
      "uri": "textures/ROPE_metallicRoughness.png"
    },
    {
      "uri": "textures/ROPE_normal.png"
    },
    {
      "uri": "textures/ROPE_BASE_normal.png"
    },
    {
      "uri": "textures/METAL_baseColor.jpeg"
    },
    {
      "uri": "textures/METAL_metallicRoughness.png"
    },
    {
      "uri": "textures/METAL_normal.png"
    }
  ],
  "materials": [
    {
      "doubleSided": true,
      "name": "WOOD",
      "normalTexture": {
        "index": 2
      },
      "occlusionTexture": {
        "index": 1
      },
      "pbrMetallicRoughness": {
        "baseColorTexture": {
          "index": 0
        },
        "metallicRoughnessTexture": {
          "index": 1
        }
      }
    },
    {
      "doubleSided": true,
      "name": "ROPE",
      "normalTexture": {
        "index": 5
      },
      "occlusionTexture": {
        "index": 4
      },
      "pbrMetallicRoughness": {
        "baseColorTexture": {
          "index": 3
        },
        "metallicRoughnessTexture": {
          "index": 4
        }
      }
    },
    {
      "doubleSided": true,
      "name": "ROPE_BASE",
      "normalTexture": {
        "index": 6
      },
      "occlusionTexture": {
        "index": 4
      },
      "pbrMetallicRoughness": {
        "baseColorTexture": {
          "index": 3
        },
        "metallicRoughnessTexture": {
          "index": 4
        }
      }
    },
    {
      "doubleSided": true,
      "name": "METAL",
      "normalTexture": {
        "index": 9
      },
      "occlusionTexture": {
        "index": 8
      },
      "pbrMetallicRoughness": {
        "baseColorTexture": {
          "index": 7
        },
        "metallicRoughnessTexture": {
          "index": 8
        }
      }
    }
  ],
  "meshes": [
    {
      "name": "defaultMaterial",
      "primitives": [
        {
          "attributes": {
            "NORMAL": 1,
            "POSITION": 0,
            "TANGENT": 2,
            "TEXCOORD_0": 3
          },
          "indices": 4,
          "material": 3,
          "mode": 4
        }
      ]
    },
    {
      "name": "defaultMaterial",
      "primitives": [
        {
          "attributes": {
            "NORMAL": 6,
            "POSITION": 5,
            "TANGENT": 7,
            "TEXCOORD_0": 8
          },
          "indices": 9,
          "material": 2,
          "mode": 4
        }
      ]
    },
    {
      "name": "defaultMaterial",
      "primitives": [
        {
          "attributes": {
            "NORMAL": 11,
            "POSITION": 10,
            "TANGENT": 12,
            "TEXCOORD_0": 13
          },
          "indices": 14,
          "material": 0,
          "mode": 4
        }
      ]
    },
    {
      "name": "defaultMaterial",
      "primitives": [
        {
          "attributes": {
            "NORMAL": 16,
            "POSITION": 15,
            "TANGENT": 17,
            "TEXCOORD_0": 18
          },
          "indices": 19,
          "material": 1,
          "mode": 4
        }
      ]
    }
  ],
  "nodes": [
    {
      "children": [
        1
      ],
      "matrix": [
        1.0,
        0.0,
        0.0,
        0.0,
        0.0,
        2.220446049250313e-16,
        -1.0,
        0.0,
        0.0,
        1.0,
        2.220446049250313e-16,
        0.0,
        0.0,
        0.0,
        0.0,
        1.0
      ],
      "name": "Sketchfab_model"
    },
    {
      "children": [
        2,
        4,
        6
      ],
      "matrix": [
        1.0,
        0.0,
        0.0,
        0.0,
        0.0,
        -4.371139006309477e-08,
        0.999999999999999,
        0.0,
        0.0,
        -0.999999999999999,
        -4.371139006309477e-08,
        0.0,
        0.0,
        0.0,
        0.0,
        1.0
      ],
      "name": "Collada visual scene group"
    },
    {
      "children": [
        3
      ],
      "name": "g"
    },
    {
      "mesh": 0,
      "name": "defaultMaterial"
    },
    {
      "children": [
        5
      ],
      "name": "g"
    },
    {
      "mesh": 1,
      "name": "defaultMaterial"
    },
    {
      "children": [
        7,
        8
      ],
      "name": "g"
    },
    {
      "mesh": 2,
      "name": "defaultMaterial"
    },
    {
      "mesh": 3,
      "name": "defaultMaterial"
    }
  ],
  "samplers": [
    {
      "magFilter": 9729,
      "minFilter": 9987,
      "wrapS": 10497,
      "wrapT": 10497
    }
  ],
  "scene": 0,
  "scenes": [
    {
      "name": "Sketchfab_Scene",
      "nodes": [
        0
      ]
    }
  ],
  "textures": [
    {
      "sampler": 0,
      "source": 0
    },
    {
      "sampler": 0,
      "source": 1
    },
    {
      "sampler": 0,
      "source": 2
    },
    {
      "sampler": 0,
      "source": 3
    },
    {
      "sampler": 0,
      "source": 4
    },
    {
      "sampler": 0,
      "source": 5
    },
    {
      "sampler": 0,
      "source": 6
    },
    {
      "sampler": 0,
      "source": 7
    },
    {
      "sampler": 0,
      "source": 8
    },
    {
      "sampler": 0,
      "source": 9
    }
  ]
}
